<svg version="1.1" xmlns="http://www.w3.org/2000/svg" xmlns:xlink="http://www.w3.org/1999/xlink" width="242" height="188" viewBox="0,0,242,188"><defs><radialGradient cx="240" cy="180" r="62" gradientUnits="userSpaceOnUse" id="color-1"><stop offset="0" stop-color="#408fff"/><stop offset="1" stop-color="#0051c3"/></radialGradient><radialGradient cx="242.12467" cy="164.4812" r="13.96911" gradientUnits="userSpaceOnUse" id="color-2"><stop offset="0" stop-color="#ffffff"/><stop offset="1" stop-color="#00abff"/></radialGradient><radialGradient cx="259.20106" cy="192.15131" r="13.46156" gradientUnits="userSpaceOnUse" id="color-3"><stop offset="0" stop-color="#ffffff"/><stop offset="1" stop-color="#00abff"/></radialGradient><radialGradient cx="225.28148" cy="192.15135" r="13.46156" gradientUnits="userSpaceOnUse" id="color-4"><stop offset="0" stop-color="#ffffff"/><stop offset="1" stop-color="#00abff"/></radialGradient><radialGradient cx="239.99999" cy="180.00001" r="11.0163" gradientUnits="userSpaceOnUse" id="color-5"><stop offset="0" stop-color="#ffffff"/><stop offset="1" stop-color="#00abff"/></radialGradient></defs><g transform="translate(-119,-86)"><g data-paper-data="{&quot;isPaintingLayer&quot;:true}" fill-rule="nonzero" stroke-linejoin="miter" stroke-miterlimit="10" stroke-dasharray="" stroke-dashoffset="0" style="mix-blend-mode: normal"><path d="M119,274v-188h242v188z" fill="#0051c3" stroke="none" stroke-width="0" stroke-linecap="butt"/><path d="M178,180c0,-34.24165 27.75835,-62 62,-62c34.24165,0 62,27.75835 62,62c0,34.24165 -27.75835,62 -62,62c-34.24165,0 -62,-27.75835 -62,-62z" fill="url(#color-1)" stroke="none" stroke-width="0" stroke-linecap="butt"/><path d="M254.59577,154.83457c0,0 -2.11558,18.39834 -13.6284,18.39834c-10.94534,0 -14.30982,-18.39834 -14.30982,-18.39834" data-paper-data="{&quot;index&quot;:null}" fill="none" stroke="url(#color-2)" stroke-width="15" stroke-linecap="round"/><path d="M257.05724,205.16543c0,0 -14.99469,-11.17936 -10.13768,-20.98804c4.20014,-8.48214 16.72586,-5.75396 21.04875,-4.51513" data-paper-data="{&quot;index&quot;:null}" fill="none" stroke="url(#color-3)" stroke-width="15" stroke-linecap="round"/><path d="M212.03169,180.12861c0,0 17.42647,-6.26841 22.5353,4.04881c4.857,9.80867 -10.13768,20.98804 -10.13768,20.98804" data-paper-data="{&quot;index&quot;:null}" fill="none" stroke="url(#color-4)" stroke-width="15" stroke-linecap="round"/><path d="M228.9837,180.00001c0,-6.08413 4.93217,-11.0163 11.0163,-11.0163c6.08413,0 11.01629,4.93217 11.01629,11.0163c0,6.08413 -4.93215,11.0163 -11.01629,11.0163c-6.08413,0 -11.0163,-4.93217 -11.0163,-11.0163z" fill="#0069ff" stroke="url(#color-5)" stroke-width="5.5" stroke-linecap="butt"/><text transform="translate(178.15514,248.01875) scale(0.86836,0.86836)" font-size="40" xml:space="preserve" fill="#e8f2ff" fill-rule="nonzero" stroke="#7eb4ff" stroke-width="5" stroke-linecap="butt" stroke-linejoin="miter" stroke-miterlimit="10" stroke-dasharray="" stroke-dashoffset="0" font-family="Handwriting" font-weight="normal" text-anchor="start" style="mix-blend-mode: normal"><tspan x="0" dy="0">GLOME</tspan></text></g></g></svg>